<svg width="40" height="40" viewBox="0 0 40 40" fill="none" xmlns="http://www.w3.org/2000/svg">
<path d="M24.6875 27.0312C24.2563 27.0312 23.9062 27.3813 23.9062 27.8125C23.9062 28.2437 24.2563 28.5938 24.6875 28.5938C25.1187 28.5938 25.4688 28.2437 25.4688 27.8125C25.4688 27.3813 25.1187 27.0312 24.6875 27.0312Z" fill="black"/>
<path d="M36.0938 0H3.90625C1.75232 0 0 1.75232 0 3.90625V27.8125C0 29.9664 1.75232 31.7188 3.90625 31.7188H16.0938V35.3125H15.3125C14.2694 35.3125 13.2889 35.719 12.5507 36.4569C11.8127 37.1951 11.4062 38.1757 11.4062 39.2188C11.4062 39.6503 11.756 40 12.1875 40H27.8125C28.244 40 28.5938 39.6503 28.5938 39.2188C28.5938 37.0648 26.8414 35.3125 24.6875 35.3125H23.9062V31.7188H36.0938C38.2477 31.7188 40 29.9664 40 27.8125V3.90625C40 1.75232 38.2477 0 36.0938 0ZM3.90625 1.5625H36.0938C37.3862 1.5625 38.4375 2.61383 38.4375 3.90625V23.9062H34.8438V5.9375C34.8438 5.50598 34.494 5.15625 34.0625 5.15625H27.8125C27.381 5.15625 27.0312 5.50598 27.0312 5.9375V23.9062H23.1207C23.1125 23.0981 23.0914 22.3016 23.0579 21.5289C22.9211 18.3472 22.6096 16.2158 22.4475 15.2783C24.0594 14.0915 24.4995 11.8918 23.5141 10.1828L20.8063 5.49286C20.6665 5.25116 20.4086 5.10223 20.1297 5.10223C19.8505 5.10223 19.5926 5.25116 19.4531 5.49286L16.7441 10.1831C15.8151 11.7944 16.1444 13.8815 17.6038 15.1132C17.4347 16.048 17.0935 18.2556 16.9452 21.5274C16.9101 22.3083 16.8878 23.1055 16.8793 23.9062H12.9688V12.1875C12.9688 12.0636 12.9395 11.9507 12.8915 11.8503C12.8894 11.8463 12.8882 11.842 12.8864 11.8381L9.76135 5.58807C9.62891 5.32349 9.35852 5.15625 9.0625 5.15625C8.76648 5.15625 8.49609 5.32349 8.36365 5.58807L5.23865 11.8381C5.23682 11.842 5.2356 11.8463 5.23376 11.8503C5.18494 11.9516 5.15625 12.0663 5.15625 12.1875V23.9062H1.5625V3.90625C1.5625 2.61383 2.61383 1.5625 3.90625 1.5625ZM28.5938 23.9062V6.71875H33.2812V8.28125H32.5C32.0685 8.28125 31.7188 8.63098 31.7188 9.0625C31.7188 9.49402 32.0685 9.84375 32.5 9.84375H33.2812V12.1875H32.5C32.0685 12.1875 31.7188 12.5372 31.7188 12.9688C31.7188 13.4003 32.0685 13.75 32.5 13.75H33.2812V16.0938H32.5C32.0685 16.0938 31.7188 16.4435 31.7188 16.875C31.7188 17.3065 32.0685 17.6562 32.5 17.6562H33.2812V20.7812H32.5C32.0685 20.7812 31.7188 21.131 31.7188 21.5625C31.7188 21.994 32.0685 22.3438 32.5 22.3438H33.2812V23.9062H28.5938ZM20.1297 16.0397C20.4135 16.0397 20.6961 16.0071 20.9726 15.946C21.1176 16.8753 21.3306 18.5196 21.4566 20.7812H18.5486C18.6807 18.5211 18.9038 16.8512 19.0579 15.8905C19.404 15.9891 19.7644 16.0397 20.1297 16.0397ZM20.1297 14.4772C18.3441 14.4772 17.1927 12.5339 18.0975 10.9641L20.1297 7.44598L22.1606 10.9637C23.0621 12.5272 21.9266 14.4772 20.1297 14.4772ZM18.4769 22.3438H21.5253C21.5417 22.8571 21.553 23.3792 21.5585 23.9062H18.4418C18.4476 23.3826 18.4595 22.8604 18.4769 22.3438ZM9.84375 23.9062V12.9688H11.4062V23.9062H9.84375ZM6.71875 23.9062V12.9688H8.28125V23.9062H6.71875ZM7.20154 11.4062L9.0625 7.68433L10.9235 11.4062H7.20154ZM26.8973 38.4375H13.1018C13.2166 38.1119 13.4039 37.8134 13.6554 37.5616C14.0985 37.1188 14.6869 36.875 15.3125 36.875H24.6875C25.7062 36.875 26.575 37.5281 26.8973 38.4375ZM22.3438 35.3125H17.6562V31.7188H22.3438V35.3125ZM36.0938 30.1562H3.90625C2.61383 30.1562 1.5625 29.1049 1.5625 27.8125V25.4688H38.4375V27.8125C38.4375 29.1049 37.3862 30.1562 36.0938 30.1562Z" fill="black"/>
<path d="M21.5625 27.0312H16.875C16.4435 27.0312 16.0938 27.381 16.0938 27.8125C16.0938 28.244 16.4435 28.5938 16.875 28.5938H21.5625C21.994 28.5938 22.3438 28.244 22.3438 27.8125C22.3438 27.381 21.994 27.0312 21.5625 27.0312Z" fill="black"/>
</svg>
